<?xml version="1.0" standalone="no"?>
<!DOCTYPE svg PUBLIC "-//W3C//DTD SVG 20010904//EN"
 "http://www.w3.org/TR/2001/REC-SVG-20010904/DTD/svg10.dtd">
<svg version="1.0" xmlns="http://www.w3.org/2000/svg"
 width="1400.000000pt" height="1400.000000pt" viewBox="0 0 1400.000000 1400.000000"
 preserveAspectRatio="xMidYMid meet">
<metadata>
Created by potrace 1.14, written by Peter Selinger 2001-2017
</metadata>
<g transform="translate(0.000000,1400.000000) scale(0.100000,-0.100000)"
fill="#000000" stroke="none">
<path d="M1829 13996 c-2 -2 -29 -6 -59 -9 -30 -4 -93 -14 -140 -23 -47 -9
-96 -18 -109 -21 -142 -26 -454 -164 -621 -274 -168 -110 -349 -274 -458 -415
-84 -109 -213 -306 -218 -334 0 -3 -20 -44 -43 -93 -80 -166 -141 -383 -168
-602 -11 -81 -10 -10371 0 -10460 4 -38 10 -79 12 -90 3 -11 7 -31 9 -45 38
-228 161 -530 299 -734 91 -135 182 -242 301 -355 27 -25 54 -51 60 -57 6 -6
52 -42 102 -80 173 -131 356 -227 577 -303 64 -22 121 -40 125 -40 4 0 39 -7
77 -15 85 -18 120 -24 205 -34 85 -9 10378 -9 10450 0 55 8 93 14 140 23 14 3
39 8 55 11 116 20 325 94 470 167 231 115 426 267 620 481 28 31 116 148 152
201 112 169 226 421 268 595 14 58 47 235 53 285 10 82 9 10386 -1 10455 -4
30 -10 72 -12 93 -30 224 -165 568 -305 777 -101 150 -229 296 -350 400 -35
30 -73 63 -85 73 -44 41 -246 168 -340 215 -168 84 -424 167 -575 186 -25 3
-56 9 -70 13 -25 8 -10413 17 -10421 9z"/>
</g>
</svg>
